<svg xmlns="http://www.w3.org/2000/svg" width="800" height="500" viewBox="0 0 800 500" role="img" aria-label="Cuddles and Critters program placeholder">
  <defs><linearGradient id="g" x1="0" y1="0" x2="1" y2="1"><stop offset="0" stop-color="#e0759b"/><stop offset="1" stop-color="#8a2f52"/></linearGradient></defs>
  <rect width="800" height="500" fill="url(#g)"/>
  <g fill="none" stroke="#ffffff" stroke-opacity="0.16" stroke-width="2"><circle cx="400" cy="250" r="150"/><circle cx="400" cy="250" r="110"/></g>
  <g transform="translate(400 168)" stroke="#ffffff" stroke-opacity="0.9" stroke-width="4" fill="none" stroke-linecap="round" stroke-linejoin="round">
    <path d="M-30 44c-24 0-40-16-40-34 0-10 8-18 18-18 8 0 12 5 16 10 4-5 8-10 16-10 10 0 18 8 18 18 0 18-16 34-40 34z"/></g>
  <text x="400" y="300" text-anchor="middle" font-family="Georgia, serif" font-size="44" font-weight="700" fill="#ffffff">Cuddles and Critters</text>
  <text x="400" y="344" text-anchor="middle" font-family="Arial, sans-serif" font-size="18" letter-spacing="2" fill="#ffffff" fill-opacity="0.82">FRANK VERNEY FOUNDATION</text>
  <text x="400" y="430" text-anchor="middle" font-family="Arial, sans-serif" font-size="15" fill="#ffffff" fill-opacity="0.7">Placeholder - add program logo in the portal</text>
</svg>