<svg xmlns="http://www.w3.org/2000/svg" width="0" height="0" style="position:absolute" aria-hidden="true"><defs>
<symbol id="i-check" viewBox="0 0 24 24"><polyline points="4 12 10 18 20 6"/></symbol>
<symbol id="i-arrow" viewBox="0 0 24 24"><line x1="4" y1="12" x2="19" y2="12"/><polyline points="13 6 19 12 13 18"/></symbol>
<symbol id="i-leaf" viewBox="0 0 24 24"><path d="M4 20c0-9 6-15 16-15 0 10-6 16-15 16"/><path d="M4 20c3-6 7-9 12-11"/></symbol>
<symbol id="i-globe" viewBox="0 0 24 24"><circle cx="12" cy="12" r="9"/><path d="M3 12h18"/><path d="M12 3c3 3.5 3 14.5 0 18M12 3c-3 3.5-3 14.5 0 18"/></symbol>
<symbol id="i-heart" viewBox="0 0 24 24"><path d="M12 20s-7-4.6-9.4-9C1 8 2.6 4.5 6 4.5c2 0 3.3 1.2 4 2.4.7-1.2 2-2.4 4-2.4 3.4 0 5 3.5 3.4 6.5C19 15.4 12 20 12 20z"/></symbol>
<symbol id="i-hand-heart" viewBox="0 0 24 24"><path d="M11 8.5c.6-1 1.5-1.6 2.6-1.6 1.7 0 2.8 1.4 2.8 2.9 0 2.3-3 4.2-5.4 5.7"/><path d="M2 14l4-2c.8-.4 1.7-.3 2.4.3l2.3 1.9c.7.6.7 1.7-.1 2.2-.6.4-1.4.4-2-.1l-1.6-1.3"/><path d="M11 16l4.5-1.5c1-.3 2 .3 2.3 1.3.2.8-.2 1.6-1 2l-5 2.4c-1 .5-2.2.5-3.2 0L4 20"/></symbol>
<symbol id="i-users" viewBox="0 0 24 24"><circle cx="9" cy="8" r="3.2"/><path d="M3.5 20c0-3.3 2.5-5.5 5.5-5.5s5.5 2.2 5.5 5.5"/><path d="M16 5.2a3.2 3.2 0 0 1 0 5.6"/><path d="M17.5 14.8c2 .8 3.5 2.7 3.5 5.2"/></symbol>
<symbol id="i-book" viewBox="0 0 24 24"><path d="M4 5.5C4 4.7 4.7 4 5.5 4H11v15H5.5C4.7 19 4 18.3 4 17.5z"/><path d="M20 5.5C20 4.7 19.3 4 18.5 4H13v15h5.5c.8 0 1.5-.7 1.5-1.5z"/></symbol>
<symbol id="i-shield" viewBox="0 0 24 24"><path d="M12 3l7 3v6c0 4.5-3 7.5-7 9-4-1.5-7-4.5-7-9V6z"/><polyline points="9 12 11 14 15 9.5"/></symbol>
<symbol id="i-tree" viewBox="0 0 24 24"><path d="M12 3l5 7h-3l4 6H6l4-6H7z"/><line x1="12" y1="16" x2="12" y2="21"/></symbol>
<symbol id="i-paw" viewBox="0 0 24 24"><ellipse cx="7" cy="9" rx="1.7" ry="2.3"/><ellipse cx="12" cy="7.5" rx="1.7" ry="2.4"/><ellipse cx="17" cy="9" rx="1.7" ry="2.3"/><path d="M12 12c-2.6 0-5 1.9-5 4.2 0 1.7 1.4 2.8 3 2.4l2-.5 2 .5c1.6.4 3-.7 3-2.4C17 13.9 14.6 12 12 12z"/></symbol>
<symbol id="i-turtle" viewBox="0 0 24 24"><path d="M6 15a6 4.5 0 0 1 12 0"/><path d="M6 15h12"/><path d="M9 15V9M12 15V8.5M15 15V9"/><path d="M4 13l-1.5-1M20 13l1.5-1M8 18.5l-1 1.5M16 18.5l1 1.5"/><path d="M18 12l2-.5"/></symbol>
<symbol id="i-fish" viewBox="0 0 24 24"><path d="M3 12c3-4.5 8-5 12-3 2 1 3.5 2.3 4.5 3-1 .7-2.5 2-4.5 3-4 2-9 1.5-12-3z"/><path d="M19.5 9L22 6.5v11L19.5 15"/><circle cx="8" cy="11.4" r=".6" fill="currentColor" stroke="none"/></symbol>
<symbol id="i-bird" viewBox="0 0 24 24"><path d="M15 7.5a1 1 0 1 0 0-.1"/><path d="M20 6c-2 0-3.5 1.3-4 3-.4 1.4-1.3 2.8-3 3.4L6 15c-1.5.5-2.5 2-2.5 3.5"/><path d="M13 12.4c0 3-2 5.6-5 6.6"/><path d="M20 6l2-1"/></symbol>
<symbol id="i-bug" viewBox="0 0 24 24"><ellipse cx="12" cy="13" rx="4.5" ry="6"/><line x1="12" y1="7" x2="12" y2="19"/><circle cx="12" cy="6" r="2"/><path d="M10.5 4.5L9 3M13.5 4.5L15 3"/><path d="M7.5 10L4 8.5M16.5 10L20 8.5M7.5 13H4M16.5 13H20M7.7 16.5L5 18M16.3 16.5L19 18"/></symbol>
<symbol id="i-primate" viewBox="0 0 24 24"><circle cx="12" cy="11" r="6"/><path d="M12 8.5a2.5 2.5 0 0 0 0 5 2.5 2.5 0 0 0 0-5z"/><circle cx="6" cy="8" r="2.2"/><circle cx="18" cy="8" r="2.2"/><circle cx="10.5" cy="10.5" r=".6" fill="currentColor" stroke="none"/><circle cx="13.5" cy="10.5" r=".6" fill="currentColor" stroke="none"/></symbol>
<symbol id="i-sun" viewBox="0 0 24 24"><circle cx="12" cy="12" r="4"/><path d="M12 2v2.5M12 19.5V22M4.2 4.2l1.8 1.8M18 18l1.8 1.8M2 12h2.5M19.5 12H22M4.2 19.8L6 18M18 6l1.8-1.8"/></symbol>
<symbol id="i-wave" viewBox="0 0 24 24"><path d="M2 9c2-2 4-2 6 0s4 2 6 0 4-2 6 0"/><path d="M2 14c2-2 4-2 6 0s4 2 6 0 4-2 6 0"/><path d="M2 19c2-2 4-2 6 0s4 2 6 0 4-2 6 0"/></symbol>
<symbol id="i-play" viewBox="0 0 24 24"><path d="M8 5v14l11-7z"/></symbol>
<symbol id="i-phone" viewBox="0 0 24 24"><path d="M6 3h3l2 5-2.4 1.5a12 12 0 0 0 5 5L15 12l5 2v3a2 2 0 0 1-2 2A16 16 0 0 1 4 5a2 2 0 0 1 2-2z"/></symbol>
<symbol id="i-mail" viewBox="0 0 24 24"><rect x="3" y="5" width="18" height="14" rx="2"/><polyline points="3.5 7 12 13 20.5 7"/></symbol>
<symbol id="i-pin" viewBox="0 0 24 24"><path d="M12 21s7-6 7-11a7 7 0 0 0-14 0c0 5 7 11 7 11z"/><circle cx="12" cy="10" r="2.5"/></symbol>
<symbol id="i-clock" viewBox="0 0 24 24"><circle cx="12" cy="12" r="9"/><polyline points="12 7 12 12 15.5 14"/></symbol>
<symbol id="i-calendar" viewBox="0 0 24 24"><rect x="3.5" y="5" width="17" height="16" rx="2"/><line x1="3.5" y1="9.5" x2="20.5" y2="9.5"/><line x1="8" y1="3" x2="8" y2="6.5"/><line x1="16" y1="3" x2="16" y2="6.5"/></symbol>
<symbol id="i-ticket" viewBox="0 0 24 24"><path d="M4 7a1 1 0 0 1 1-1h14a1 1 0 0 1 1 1v3a2 2 0 0 0 0 4v3a1 1 0 0 1-1 1H5a1 1 0 0 1-1-1v-3a2 2 0 0 0 0-4z"/><line x1="14" y1="6" x2="14" y2="18" stroke-dasharray="1.5 2.5"/></symbol>
<symbol id="i-award" viewBox="0 0 24 24"><circle cx="12" cy="9" r="5"/><polyline points="9 13.2 7.8 21 12 18.8 16.2 21 15 13.2"/></symbol>
<symbol id="i-spark" viewBox="0 0 24 24"><path d="M12 3l1.8 5.4L19 10l-5.2 1.6L12 17l-1.8-5.4L5 10l5.2-1.6z"/></symbol>
<symbol id="i-target" viewBox="0 0 24 24"><circle cx="12" cy="12" r="9"/><circle cx="12" cy="12" r="5"/><circle cx="12" cy="12" r="1.4" fill="currentColor" stroke="none"/></symbol>
<symbol id="i-eye" viewBox="0 0 24 24"><path d="M2.5 12S6 5.5 12 5.5 21.5 12 21.5 12 18 18.5 12 18.5 2.5 12 2.5 12z"/><circle cx="12" cy="12" r="3"/></symbol>
<symbol id="i-megaphone" viewBox="0 0 24 24"><path d="M4 10v4a1 1 0 0 0 1 1h2l6 4V5L7 9H5a1 1 0 0 0-1 1z"/><path d="M17 8.5a4 4 0 0 1 0 7"/></symbol>
<symbol id="i-facebook" viewBox="0 0 24 24"><path d="M14 8.3h-1.4c-.9 0-1.6.7-1.6 1.6V22" fill="none"/><path d="M14 8.3h-1.4c-.9 0-1.6.7-1.6 1.6V22M9.7 13h4.1"/><circle cx="12" cy="12" r="9"/></symbol>
<symbol id="i-instagram" viewBox="0 0 24 24"><rect x="4" y="4" width="16" height="16" rx="4.6"/><circle cx="12" cy="12" r="3.8"/><circle cx="16.6" cy="7.4" r="1"/></symbol>
<symbol id="i-youtube" viewBox="0 0 24 24"><rect x="3" y="6" width="18" height="12" rx="3"/><path d="M11 9.5l4 2.5-4 2.5z"/></symbol>
<symbol id="i-x" viewBox="0 0 24 24"><path d="M4 4l16 16M20 4L4 20"/></symbol>
<symbol id="i-linkedin" viewBox="0 0 24 24"><rect x="3.5" y="3.5" width="17" height="17" rx="3"/><line x1="8" y1="10" x2="8" y2="16"/><circle cx="8" cy="7.2" r=".9" fill="currentColor" stroke="none"/><path d="M12 16v-3.2a2 2 0 0 1 4 0V16M12 10.2V16"/></symbol>
</defs></svg>
